<mxfile host="65bd71144e">
    <diagram id="iRUF_IPGr7B99mnxCDaZ" name="Page-1">
        <mxGraphModel dx="1208" dy="807" grid="1" gridSize="10" guides="1" tooltips="1" connect="1" arrows="1" fold="1" page="1" pageScale="1" pageWidth="850" pageHeight="1100" math="0" shadow="0">
            <root>
                <mxCell id="0"/>
                <mxCell id="1" parent="0"/>
                <mxCell id="2" value="photo_shoot" style="rounded=0;whiteSpace=wrap;html=1;" parent="1" vertex="1">
                    <mxGeometry x="220" y="370" width="120" height="60" as="geometry"/>
                </mxCell>
                <mxCell id="4" value="&lt;u&gt;ID&lt;/u&gt;" style="ellipse;whiteSpace=wrap;html=1;" parent="1" vertex="1">
                    <mxGeometry x="50" y="360" width="120" height="80" as="geometry"/>
                </mxCell>
                <mxCell id="5" value="runtime" style="ellipse;whiteSpace=wrap;html=1;" parent="1" vertex="1">
                    <mxGeometry x="220" y="240" width="120" height="80" as="geometry"/>
                </mxCell>
                <mxCell id="6" value="Photo_type" style="ellipse;whiteSpace=wrap;html=1;" parent="1" vertex="1">
                    <mxGeometry x="380" y="740" width="120" height="80" as="geometry"/>
                </mxCell>
                <mxCell id="28" style="edgeStyle=none;html=1;exitX=0.5;exitY=1;exitDx=0;exitDy=0;entryX=0.5;entryY=0;entryDx=0;entryDy=0;strokeWidth=1;" parent="1" source="7" target="25" edge="1">
                    <mxGeometry relative="1" as="geometry"/>
                </mxCell>
                <mxCell id="7" value="Customer" style="rounded=0;whiteSpace=wrap;html=1;" parent="1" vertex="1">
                    <mxGeometry x="550" y="920" width="120" height="60" as="geometry"/>
                </mxCell>
                <mxCell id="8" value="password" style="ellipse;whiteSpace=wrap;html=1;" parent="1" vertex="1">
                    <mxGeometry x="710" y="1130" width="120" height="80" as="geometry"/>
                </mxCell>
                <mxCell id="9" value="&lt;u&gt;username&lt;/u&gt;" style="ellipse;whiteSpace=wrap;html=1;" parent="1" vertex="1">
                    <mxGeometry x="550" y="1240" width="120" height="80" as="geometry"/>
                </mxCell>
                <mxCell id="10" value="&lt;u&gt;email&lt;/u&gt;" style="ellipse;whiteSpace=wrap;html=1;" parent="1" vertex="1">
                    <mxGeometry x="380" y="960" width="120" height="80" as="geometry"/>
                </mxCell>
                <mxCell id="11" value="&lt;u&gt;ID&lt;/u&gt;" style="ellipse;whiteSpace=wrap;html=1;" parent="1" vertex="1">
                    <mxGeometry x="380" y="860" width="120" height="80" as="geometry"/>
                </mxCell>
                <mxCell id="16" value="" style="endArrow=none;html=1;strokeWidth=5;exitX=1;exitY=1;exitDx=0;exitDy=0;entryX=0;entryY=0.5;entryDx=0;entryDy=0;" parent="1" source="11" target="7" edge="1">
                    <mxGeometry width="50" height="50" relative="1" as="geometry">
                        <mxPoint x="250" y="810" as="sourcePoint"/>
                        <mxPoint x="300" y="760" as="targetPoint"/>
                    </mxGeometry>
                </mxCell>
                <mxCell id="18" value="" style="endArrow=none;html=1;strokeWidth=1;" parent="1" edge="1">
                    <mxGeometry width="50" height="50" relative="1" as="geometry">
                        <mxPoint x="280" y="320" as="sourcePoint"/>
                        <mxPoint x="280" y="370" as="targetPoint"/>
                    </mxGeometry>
                </mxCell>
                <mxCell id="19" value="" style="endArrow=none;html=1;strokeWidth=5;exitX=1;exitY=0.5;exitDx=0;exitDy=0;entryX=0;entryY=0.5;entryDx=0;entryDy=0;" parent="1" source="4" target="2" edge="1">
                    <mxGeometry width="50" height="50" relative="1" as="geometry">
                        <mxPoint x="400" y="490" as="sourcePoint"/>
                        <mxPoint x="450" y="440" as="targetPoint"/>
                    </mxGeometry>
                </mxCell>
                <mxCell id="21" value="" style="endArrow=none;html=1;strokeWidth=5;exitX=1;exitY=0.5;exitDx=0;exitDy=0;entryX=0;entryY=0.5;entryDx=0;entryDy=0;" parent="1" source="6" target="38" edge="1">
                    <mxGeometry width="50" height="50" relative="1" as="geometry">
                        <mxPoint x="400" y="720" as="sourcePoint"/>
                        <mxPoint x="450" y="670" as="targetPoint"/>
                    </mxGeometry>
                </mxCell>
                <mxCell id="23" value="&lt;u&gt;ID&lt;/u&gt;" style="ellipse;whiteSpace=wrap;html=1;" parent="1" vertex="1">
                    <mxGeometry x="380" y="1130" width="120" height="80" as="geometry"/>
                </mxCell>
                <mxCell id="27" style="edgeStyle=none;html=1;exitX=0.5;exitY=0;exitDx=0;exitDy=0;entryX=0.5;entryY=1;entryDx=0;entryDy=0;strokeWidth=3;" parent="1" source="24" target="25" edge="1">
                    <mxGeometry relative="1" as="geometry"/>
                </mxCell>
                <mxCell id="24" value="Account" style="rounded=0;whiteSpace=wrap;html=1;" parent="1" vertex="1">
                    <mxGeometry x="550" y="1140" width="120" height="60" as="geometry"/>
                </mxCell>
                <mxCell id="25" value="has a" style="rhombus;whiteSpace=wrap;html=1;" parent="1" vertex="1">
                    <mxGeometry x="540" y="1030" width="140" height="60" as="geometry"/>
                </mxCell>
                <mxCell id="26" value="name" style="ellipse;whiteSpace=wrap;html=1;" parent="1" vertex="1">
                    <mxGeometry x="710" y="910" width="120" height="80" as="geometry"/>
                </mxCell>
                <mxCell id="30" value="" style="endArrow=none;html=1;strokeWidth=5;entryX=0;entryY=0.5;entryDx=0;entryDy=0;exitX=1;exitY=0.5;exitDx=0;exitDy=0;" parent="1" source="7" target="26" edge="1">
                    <mxGeometry width="50" height="50" relative="1" as="geometry">
                        <mxPoint x="430" y="900" as="sourcePoint"/>
                        <mxPoint x="480" y="850" as="targetPoint"/>
                    </mxGeometry>
                </mxCell>
                <mxCell id="31" value="" style="endArrow=none;html=1;strokeWidth=5;entryX=1;entryY=0;entryDx=0;entryDy=0;" parent="1" target="10" edge="1">
                    <mxGeometry width="50" height="50" relative="1" as="geometry">
                        <mxPoint x="550" y="950" as="sourcePoint"/>
                        <mxPoint x="560" y="960" as="targetPoint"/>
                    </mxGeometry>
                </mxCell>
                <mxCell id="33" value="" style="endArrow=none;html=1;strokeWidth=5;entryX=0;entryY=0.5;entryDx=0;entryDy=0;exitX=1;exitY=0.5;exitDx=0;exitDy=0;" parent="1" source="24" target="8" edge="1">
                    <mxGeometry width="50" height="50" relative="1" as="geometry">
                        <mxPoint x="680" y="960" as="sourcePoint"/>
                        <mxPoint x="730" y="960" as="targetPoint"/>
                    </mxGeometry>
                </mxCell>
                <mxCell id="35" value="" style="endArrow=none;html=1;strokeWidth=5;entryX=0;entryY=0.5;entryDx=0;entryDy=0;exitX=1;exitY=0.5;exitDx=0;exitDy=0;" parent="1" source="23" target="24" edge="1">
                    <mxGeometry width="50" height="50" relative="1" as="geometry">
                        <mxPoint x="680" y="1180" as="sourcePoint"/>
                        <mxPoint x="730" y="1180" as="targetPoint"/>
                    </mxGeometry>
                </mxCell>
                <mxCell id="36" value="" style="endArrow=none;html=1;strokeWidth=5;entryX=0.5;entryY=1;entryDx=0;entryDy=0;exitX=0.5;exitY=0;exitDx=0;exitDy=0;" parent="1" target="24" edge="1">
                    <mxGeometry width="50" height="50" relative="1" as="geometry">
                        <mxPoint x="610" y="1240" as="sourcePoint"/>
                        <mxPoint x="730" y="1180" as="targetPoint"/>
                    </mxGeometry>
                </mxCell>
                <mxCell id="48" style="edgeStyle=none;html=1;exitX=0;exitY=0.5;exitDx=0;exitDy=0;entryX=1;entryY=0.5;entryDx=0;entryDy=0;strokeWidth=5;" parent="1" source="37" target="44" edge="1">
                    <mxGeometry relative="1" as="geometry"/>
                </mxCell>
                <mxCell id="54" style="edgeStyle=none;html=1;exitX=0.5;exitY=0;exitDx=0;exitDy=0;entryX=0.5;entryY=1;entryDx=0;entryDy=0;strokeWidth=1;" parent="1" source="37" target="53" edge="1">
                    <mxGeometry relative="1" as="geometry"/>
                </mxCell>
                <mxCell id="37" value="Event" style="rounded=0;whiteSpace=wrap;html=1;" parent="1" vertex="1">
                    <mxGeometry x="550" y="370" width="120" height="60" as="geometry"/>
                </mxCell>
                <mxCell id="38" value="purchased by" style="rhombus;whiteSpace=wrap;html=1;" parent="1" vertex="1">
                    <mxGeometry x="540" y="750" width="140" height="60" as="geometry"/>
                </mxCell>
                <mxCell id="39" value="" style="endArrow=none;html=1;strokeWidth=1;entryX=0.5;entryY=0;entryDx=0;entryDy=0;exitX=0.5;exitY=1;exitDx=0;exitDy=0;" parent="1" source="38" target="7" edge="1">
                    <mxGeometry width="50" height="50" relative="1" as="geometry">
                        <mxPoint x="680" y="960" as="sourcePoint"/>
                        <mxPoint x="730" y="960" as="targetPoint"/>
                    </mxGeometry>
                </mxCell>
                <mxCell id="40" value="price" style="ellipse;whiteSpace=wrap;html=1;" parent="1" vertex="1">
                    <mxGeometry x="710" y="740" width="120" height="80" as="geometry"/>
                </mxCell>
                <mxCell id="41" value="" style="endArrow=none;html=1;strokeWidth=5;entryX=0;entryY=0.5;entryDx=0;entryDy=0;exitX=1;exitY=0.5;exitDx=0;exitDy=0;" parent="1" source="38" target="40" edge="1">
                    <mxGeometry width="50" height="50" relative="1" as="geometry">
                        <mxPoint x="680" y="960" as="sourcePoint"/>
                        <mxPoint x="720" y="960" as="targetPoint"/>
                    </mxGeometry>
                </mxCell>
                <mxCell id="42" value="app_time" style="ellipse;whiteSpace=wrap;html=1;" parent="1" vertex="1">
                    <mxGeometry x="710" y="590" width="120" height="80" as="geometry"/>
                </mxCell>
                <mxCell id="43" value="&lt;u&gt;ID&lt;/u&gt;" style="ellipse;whiteSpace=wrap;html=1;" parent="1" vertex="1">
                    <mxGeometry x="710" y="130" width="120" height="80" as="geometry"/>
                </mxCell>
                <mxCell id="44" value="Event" style="rhombus;whiteSpace=wrap;html=1;" parent="1" vertex="1">
                    <mxGeometry x="370" y="370" width="140" height="60" as="geometry"/>
                </mxCell>
                <mxCell id="46" value="" style="endArrow=none;html=1;strokeWidth=5;exitX=0.5;exitY=0;exitDx=0;exitDy=0;entryX=0;entryY=1;entryDx=0;entryDy=0;" parent="1" source="37" target="43" edge="1">
                    <mxGeometry width="50" height="50" relative="1" as="geometry">
                        <mxPoint x="502.42640687119274" y="688.2842712474617" as="sourcePoint"/>
                        <mxPoint x="560" y="730" as="targetPoint"/>
                    </mxGeometry>
                </mxCell>
                <mxCell id="47" value="" style="endArrow=none;html=1;strokeWidth=5;entryX=0.5;entryY=1;entryDx=0;entryDy=0;exitX=0;exitY=0.5;exitDx=0;exitDy=0;" parent="1" source="42" target="37" edge="1">
                    <mxGeometry width="50" height="50" relative="1" as="geometry">
                        <mxPoint x="620" y="590" as="sourcePoint"/>
                        <mxPoint x="620" y="700" as="targetPoint"/>
                    </mxGeometry>
                </mxCell>
                <mxCell id="49" value="" style="endArrow=none;html=1;strokeWidth=1;exitX=1;exitY=0.5;exitDx=0;exitDy=0;" parent="1" source="2" target="44" edge="1">
                    <mxGeometry width="50" height="50" relative="1" as="geometry">
                        <mxPoint x="620" y="590" as="sourcePoint"/>
                        <mxPoint x="620" y="700" as="targetPoint"/>
                    </mxGeometry>
                </mxCell>
                <mxCell id="50" value="" style="endArrow=none;html=1;strokeWidth=1;entryX=0.5;entryY=0;entryDx=0;entryDy=0;exitX=0.5;exitY=1;exitDx=0;exitDy=0;" parent="1" source="37" target="38" edge="1">
                    <mxGeometry width="50" height="50" relative="1" as="geometry">
                        <mxPoint x="620" y="590" as="sourcePoint"/>
                        <mxPoint x="620" y="700" as="targetPoint"/>
                    </mxGeometry>
                </mxCell>
                <mxCell id="52" value="Location" style="rounded=0;whiteSpace=wrap;html=1;" parent="1" vertex="1">
                    <mxGeometry x="550" y="40" width="120" height="60" as="geometry"/>
                </mxCell>
                <mxCell id="53" value="shoot_at" style="rhombus;whiteSpace=wrap;html=1;" parent="1" vertex="1">
                    <mxGeometry x="540" y="150" width="140" height="60" as="geometry"/>
                </mxCell>
                <mxCell id="55" value="" style="endArrow=none;html=1;strokeWidth=1;exitX=0.5;exitY=1;exitDx=0;exitDy=0;entryX=0.5;entryY=0;entryDx=0;entryDy=0;" parent="1" source="52" target="53" edge="1">
                    <mxGeometry width="50" height="50" relative="1" as="geometry">
                        <mxPoint x="620" y="350" as="sourcePoint"/>
                        <mxPoint x="610" y="130" as="targetPoint"/>
                    </mxGeometry>
                </mxCell>
                <mxCell id="56" value="&lt;u&gt;ID&lt;/u&gt;" style="ellipse;whiteSpace=wrap;html=1;" parent="1" vertex="1">
                    <mxGeometry x="390" y="30" width="120" height="80" as="geometry"/>
                </mxCell>
                <mxCell id="57" value="Capacity" style="ellipse;whiteSpace=wrap;html=1;" parent="1" vertex="1">
                    <mxGeometry x="710" y="30" width="120" height="80" as="geometry"/>
                </mxCell>
                <mxCell id="58" value="" style="endArrow=none;html=1;strokeWidth=5;exitX=1;exitY=0.5;exitDx=0;exitDy=0;entryX=0;entryY=0.5;entryDx=0;entryDy=0;" parent="1" source="56" target="52" edge="1">
                    <mxGeometry width="50" height="50" relative="1" as="geometry">
                        <mxPoint x="510" y="470" as="sourcePoint"/>
                        <mxPoint x="550" y="470" as="targetPoint"/>
                    </mxGeometry>
                </mxCell>
                <mxCell id="59" value="" style="endArrow=none;html=1;strokeWidth=5;entryX=0;entryY=0.5;entryDx=0;entryDy=0;exitX=1;exitY=0.5;exitDx=0;exitDy=0;" parent="1" source="52" target="57" edge="1">
                    <mxGeometry width="50" height="50" relative="1" as="geometry">
                        <mxPoint x="690" y="470" as="sourcePoint"/>
                        <mxPoint x="720" y="470" as="targetPoint"/>
                    </mxGeometry>
                </mxCell>
                <mxCell id="61" value="&lt;u&gt;customer id&lt;/u&gt;" style="ellipse;whiteSpace=wrap;html=1;" vertex="1" parent="1">
                    <mxGeometry x="710" y="220" width="120" height="80" as="geometry"/>
                </mxCell>
                <mxCell id="62" value="&lt;u&gt;appt_date&lt;/u&gt;" style="ellipse;whiteSpace=wrap;html=1;" vertex="1" parent="1">
                    <mxGeometry x="710" y="310" width="120" height="80" as="geometry"/>
                </mxCell>
                <mxCell id="63" value="&lt;u&gt;location_id&lt;/u&gt;" style="ellipse;whiteSpace=wrap;html=1;" vertex="1" parent="1">
                    <mxGeometry x="710" y="400" width="120" height="80" as="geometry"/>
                </mxCell>
                <mxCell id="65" value="&lt;u&gt;duration&lt;/u&gt;" style="ellipse;whiteSpace=wrap;html=1;" vertex="1" parent="1">
                    <mxGeometry x="710" y="500" width="120" height="80" as="geometry"/>
                </mxCell>
                <mxCell id="67" value="" style="endArrow=none;html=1;strokeWidth=5;exitX=0.75;exitY=0;exitDx=0;exitDy=0;entryX=0;entryY=0.5;entryDx=0;entryDy=0;" edge="1" parent="1" source="37" target="61">
                    <mxGeometry width="50" height="50" relative="1" as="geometry">
                        <mxPoint x="690" y="360" as="sourcePoint"/>
                        <mxPoint x="800.6135931288072" y="192.30427124746166" as="targetPoint"/>
                    </mxGeometry>
                </mxCell>
                <mxCell id="68" value="" style="endArrow=none;html=1;strokeWidth=5;exitX=1;exitY=0;exitDx=0;exitDy=0;entryX=0;entryY=0.5;entryDx=0;entryDy=0;" edge="1" parent="1" source="37" target="62">
                    <mxGeometry width="50" height="50" relative="1" as="geometry">
                        <mxPoint x="700" y="330" as="sourcePoint"/>
                        <mxPoint x="810.6135931288072" y="162.30427124746166" as="targetPoint"/>
                    </mxGeometry>
                </mxCell>
                <mxCell id="69" value="" style="endArrow=none;html=1;strokeWidth=5;exitX=-0.008;exitY=0.388;exitDx=0;exitDy=0;entryX=0.842;entryY=1;entryDx=0;entryDy=0;exitPerimeter=0;entryPerimeter=0;" edge="1" parent="1" source="65" target="37">
                    <mxGeometry width="50" height="50" relative="1" as="geometry">
                        <mxPoint x="700" y="410" as="sourcePoint"/>
                        <mxPoint x="810.6135931288072" y="242.30427124746166" as="targetPoint"/>
                    </mxGeometry>
                </mxCell>
                <mxCell id="70" value="" style="endArrow=none;html=1;strokeWidth=5;exitX=1;exitY=1;exitDx=0;exitDy=0;entryX=0;entryY=0.5;entryDx=0;entryDy=0;" edge="1" parent="1" source="37" target="63">
                    <mxGeometry width="50" height="50" relative="1" as="geometry">
                        <mxPoint x="710" y="400" as="sourcePoint"/>
                        <mxPoint x="820.6135931288072" y="232.30427124746166" as="targetPoint"/>
                    </mxGeometry>
                </mxCell>
            </root>
        </mxGraphModel>
    </diagram>
</mxfile>